<svg id="SvgjsSvg1025" width="288" height="288" xmlns="http://www.w3.org/2000/svg" version="1.1" xmlns:xlink="http://www.w3.org/1999/xlink" xmlns:svgjs="http://svgjs.com/svgjs"><defs id="SvgjsDefs1026"></defs><g id="SvgjsG1027"><svg xmlns="http://www.w3.org/2000/svg" width="288" height="288" version="1.0" viewBox="0 0 3600 4720"><g transform="matrix(.1 0 0 -.1 0 4720)" fill="#ffffff" class="color000 svgShape"><path d="M10545 47159 c-753 -164 -1494 -392 -2233 -686 -1229 -488 -2259-1238 -3041 -2213 -952 -1187 -1556 -2724 -1780 -4530 -65 -519 -89 -895 -98
-1475 -13 -935 64 -1912 217 -2741 16 -90 30 -167 30 -172 0 -4 -26 -12 -58
-18 -132 -26 -261 -122 -321 -242 -54 -107 -144 -476 -185 -762 -44 -303 -59
-719 -35 -966 70 -721 354 -1253 848 -1585 368 -248 875 -380 1301 -340 440
42 799 213 1134 540 239 234 434 515 604 870 62 131 174 402 187 454 15 58 22
19 28 -155 24 -651 142 -1382 322 -1994 132 -446 327 -935 515 -1290 l59 -111
-117 -44 c-166 -61 -445 -203 -596 -303 -382 -254 -702 -588 -954 -996 -491
-794 -694 -1829 -561 -2870 41 -324 143 -748 252 -1045 211 -576 510 -1081
908 -1531 765 -866 1907 -1436 3177 -1585 l102 -12 0 -61 c0 -118 47 -240 123
-323 45 -49 323 -260 574 -436 1515 -1063 3202 -1774 4646 -1958 206 -26 531
-36 651 -20 195 26 332 95 423 214 l22 29 104 -70 c240 -160 486 -267 753
-327 254 -57 39 -54 4044 -55 2394 0 3727 4 3785 10 510 57 959 268 1319 619
164 161 293 327 388 501 39 71 1608 3092 1678 3230 52 103 70 165 70 247 0 46
6 72 22 100 30 51 553 1112 583 1184 57 135 70 210 69 409 0 158 -3 196 -22
264 -109 392 -401 686 -782 787 -129 34 -294 41 -865 37 -473 -4 -546 -6 -590
-21 -44 -15 -118 -54 -166 -88 -13 -10 -26 -5 -70 25 -29 20 -83 46 -119 58
l-65 23 -1360 0 -1360 0 -70 -22 c-39 -12 -96 -40 -126 -61 l-56 -39 -36 27
c-57 42 -147 79 -223 90 -40 5 -357 10 -754 11 l-685 1 215 24 c304 33 704 88
990 135 551 90 1373 274 1497 335 66 32 165 122 200 181 86 148 84 363 -5 504
-43 67 -91 111 -200 184 -434 288 -667 641 -751 1134 -12 68 -21 141 -21 162
l0 38 63 -28 c348 -156 987 -320 1467 -375 356 -42 842 -46 1145 -11 1005 116
1827 510 2515 1205 1120 1130 1734 2934 1841 5405 13 308 7 1311 -10 1575 -44
675 -77 956 -125 1070 -4 10 22 46 80 110 244 267 432 595 574 1005 130 377
176 684 167 1123 -5 260 -14 353 -72 752 -32 214 -42 432 -26 512 20 94 63
166 148 248 42 41 94 93 114 114 130 136 157 363 64 545 -32 64 -110 150 -160
177 -19 10 -34 21 -32 24 29 49 111 234 131 292 54 167 61 215 62 483 1 242 2
252 25 300 21 44 24 64 24 170 -1 98 -6 141 -29 235 -58 232 -153 467 -259
640 -25 41 -43 78 -40 83 6 10 90 47 107 47 7 0 23 -34 36 -76 73 -240 209
-392 399 -448 67 -20 207 -21 276 -2 86 23 166 68 242 139 58 55 81 86 113
150 58 118 71 181 77 349 20 575 -302 1040 -815 1175 -132 35 -391 44 -538 19
-344 -59 -702 -258 -1043 -584 l-94 -89 -276 5 c-402 7 -670 -20 -978 -97
-354 -90 -707 -261 -963 -468 -76 -62 -236 -221 -281 -281 l-25 -32 -99 14
c-163 24 -282 28 -412 16 -354 -33 -604 -155 -855 -419 -239 -251 -359 -547
-361 -891 -1 -80 2 -161 6 -182 l8 -36 -73 -27 c-253 -95 -490 -259 -633 -438
-176 -219 -261 -448 -272 -727 -9 -225 23 -408 108 -625 42 -106 42 -106 23
-130 -162 -203 -263 -383 -311 -560 -26 -93 -28 -113 -27 -285 0 -157 3 -197
21 -262 68 -242 215 -467 415 -636 l38 -31 -66 -108 c-193 -317 -320 -644
-376 -973 -28 -164 -30 -473 -3 -785 47 -568 17 -743 -158 -918 -42 -43 -82
-77 -88 -75 -6 2 -31 53 -55 113 -364 893 -1044 1728 -1964 2412 -280 209
-680 456 -790 490 -33 11 -89 18 -142 18 -52 0 -88 4 -88 10 -1 6 -2 127 -4
270 -4 343 -41 622 -120 909 l-25 89 29 33 c82 94 178 270 228 420 126 377 79
777 -130 1081 -67 99 -201 232 -301 301 -161 111 -419 217 -710 292 -81 20
-150 39 -152 42 -2 2 9 46 26 98 145 452 107 1021 -106 1575 -119 309 -165
350 -522 468 -225 75 -507 158 -714 212 l-107 27 -10 54 c-26 128 -77 196
-290 387 -689 619 -1506 1146 -2351 1517 -463 203 -893 350 -1421 488 l-255
67 -2085 2 -2085 2 -180 -40z m2705 -239 c1881 -87 3596 -726 5010 -1864 135
-108 422 -359 455 -396 l20 -23 -26 6 c-269 66 -839 148 -1259 181 -471 38
-1157 49 -1600 26 -2062 -107 -3938 -674 -5665 -1709 -591 -354 -1214 -810
-1757 -1285 -169 -147 -331 -296 -323 -296 3 0 62 42 132 93 1112 811 2587
1584 3948 2070 1314 469 2560 725 3835 788 301 15 1053 6 1320 -15 911 -73
1697 -228 2513 -496 l214 -70 43 -108 c118 -301 178 -625 167 -902 -10 -231
-61 -420 -155 -577 l-47 -78 -45 2 c-25 0 -106 8 -180 17 -261 30 -479 40
-870 40 -404 -1 -614 -10 -1010 -45 -731 -65 -1565 -214 -2320 -414 -1138
-302 -2446 -801 -3525 -1345 -1752 -884 -3061 -1960 -4017 -3302 -504 -709
-930 -1552 -1200 -2375 l-53 -162 -50 -11 c-216 -49 -534 -74 -830 -67 -321 8
-560 44 -821 123 -386 117 -737 331 -974 596 l-60 66 -35 194 c-89 483 -154
1038 -196 1673 -17 262 -23 1079 -10 1365 39 847 134 1546 306 2255 351 1448
978 2633 1880 3554 505 516 1020 901 1671 1249 869 466 2259 916 3414 1107
465 77 864 117 1350 138 170 8 557 6 750 -3z m18832 -1964 c193 -56 325 -190
400 -407 31 -90 32 -101 33 -246 0 -137 -2 -154 -20 -179 -12 -15 -31 -34 -43
-42 -37 -24 -72 23 -117 158 -71 215 -131 307 -237 359 -55 28 -70 31 -155 31
-225 0 -429 -84 -606 -250 -80 -75 -174 -196 -225 -292 -43 -79 -50 -82 -167
-82 -61 0 -90 6 -120 21 -79 41 -105 88 -105 188 0 54 4 68 27 97 304 371 697
628 1022 668 93 11 223 1 313 -24z m-1564 -671 c20 -7 22 -14 22 -76 0 -104
29 -169 109 -250 131 -130 328 -204 450 -169 50 14 103 54 130 98 l24 39 27
-31 c133 -152 274 -472 314 -712 l7 -41 -93 -6 c-176 -10 -391 -112 -633 -301
-58 -46 -60 -46 -67 -24 -4 13 -23 127 -44 253 -20 127 -40 233 -44 238 -3 4
-199 -51 -436 -122 -236 -71 -431 -127 -433 -126 -1 2 24 43 58 92 125 182
280 338 396 399 30 16 51 32 47 36 -11 10 -157 55 -255 78 -189 45 -342 62
-607 67 -362 8 -641 -24 -995 -111 -77 -19 -141 -33 -143 -32 -7 7 82 108 166
188 276 262 731 456 1192 507 52 6 109 13 125 15 49 7 658 -2 683 -9z m-2648
-855 c58 -12 109 -25 113 -29 4 -4 1 -36 -8 -72 -8 -35 -20 -128 -27 -206 -45
-531 156 -1048 554 -1428 51 -50 136 -121 187 -160 l93 -70 -6 -95 c-14 -247
-108 -444 -238 -500 -151 -65 -457 29 -770 237 -170 112 -288 210 -453 377
-347 348 -540 694 -577 1032 -19 178 18 355 108 509 57 97 219 263 310 318
186 112 440 143 714 87z m1512 -11 c96 -14 212 -43 298 -75 l69 -26 -67 -66
c-80 -80 -151 -189 -203 -315 -34 -83 -82 -237 -74 -237 1 0 81 30 176 66 96
37 311 115 479 175 l305 108 12 -29 c28 -66 133 -531 158 -702 4 -27 9 -48 11
-48 2 0 36 33 76 73 82 83 164 148 323 261 115 81 392 256 506 320 l67 36 17
-112 c61 -391 -27 -655 -337 -1005 -101 -114 -182 -189 -513 -478 -280 -245
-486 -447 -604 -595 -355 -442 -525 -910 -586 -1612 -8 -98 -22 -209 -30 -248
-56 -268 -222 -480 -493 -634 -177 -100 -361 -165 -874 -311 -436 -125 -573
-172 -773 -270 -176 -85 -298 -169 -410 -280 -108 -108 -175 -208 -260 -394
-185 -401 -376 -680 -669 -980 -255 -259 -508 -452 -781 -595 -71 -37 -83 -41
-55 -19 226 183 326 315 396 521 72 211 82 431 44 942 -33 438 -21 622 60 881
68 219 175 437 321 654 125 184 119 178 169 165 80 -22 206 -40 311 -47 366
-21 644 141 779 455 64 147 99 322 100 486 l0 89 73 -6 c95 -8 301 9 405 33
362 86 588 320 656 680 10 48 16 136 16 214 l0 131 59 -3 c87 -5 197 15 268
48 129 60 211 173 248 344 37 168 -6 634 -62 674 -151 107 -202 149 -278 226
-228 232 -373 548 -415 906 -17 145 -10 437 10 450 8 6 76 30 150 55 151 49
336 89 480 104 110 11 336 6 442 -10z m-2752 -1522 c58 -116 193 -323 300
-457 100 -125 292 -319 410 -414 208 -167 486 -324 715 -405 l110 -39 8 -43
c4 -24 5 -81 2 -127 -24 -323 -193 -531 -500 -614 -69 -19 -108 -22 -285 -22
-215 -1 -282 6 -448 50 -277 72 -537 221 -747 429 -216 214 -363 471 -409 715
-78 412 111 751 518 929 82 36 246 90 271 90 6 0 30 -41 55 -92z m-7055 53
c576 -30 1046 -110 1381 -236 188 -70 291 -132 390 -235 76 -80 109 -131 148
-234 30 -78 31 -85 30 -240 0 -148 -2 -166 -28 -245 -35 -104 -66 -167 -121
-245 -58 -81 -135 -152 -198 -180 -60 -27 -96 -31 -387 -45 -1476 -72 -2973
-266 -4641 -600 -454 -91 -1134 -241 -1387 -306 -1372 -352 -2931 -1107 -4602
-2229 -967 -649 -1978 -1432 -2834 -2194 -64 -57 -118 -102 -121 -100 -6 6
106 292 171 438 707 1582 2081 3106 3804 4218 1466 947 3428 1734 5340 2144
1067 229 2187 334 3055 289z m11924 -587 c-110 -113 -144 -160 -199 -275 -72
-151 -84 -213 -84 -453 1 -192 4 -234 42 -495 54 -378 64 -490 64 -710 0 -208
-12 -340 -47 -515 -82 -411 -274 -840 -495 -1110 -129 -157 -320 -325 -510
-447 -691 -446 -1803 -654 -3070 -577 -96 6 -176 12 -177 13 -8 7 33 118 59
158 37 59 145 161 228 217 89 59 357 188 525 254 77 31 275 103 440 162 165
59 372 134 460 167 586 222 915 435 1044 677 55 103 61 147 59 446 -1 162 4
306 11 360 71 532 275 977 677 1480 319 398 641 645 947 725 131 34 132 32 26
-77z m-5664 -1281 c65 -92 282 -308 393 -392 235 -177 493 -270 718 -258 l77
4 -6 -66 c-20 -227 -140 -425 -306 -504 -102 -49 -189 -63 -301 -48 -291 39
-599 226 -748 455 -149 229 -139 493 30 741 45 68 90 124 98 125 3 0 23 -25
45 -57z m-4595 -269 c19 -67 58 -315 70 -443 7 -69 10 -222 9 -340 l-3 -215
87 -365 c132 -557 179 -912 193 -1484 l7 -259 -55 7 c-31 4 -110 14 -175 22
-158 20 -684 30 -827 15 -60 -6 -111 -10 -112 -8 -2 2 8 30 21 64 75 184 80
464 13 683 -11 36 -21 66 -23 68 -2 2 -132 -15 -290 -38 -158 -23 -293 -40
-301 -38 -10 2 40 83 157 251 l171 249 -33 35 c-150 156 -393 241 -581 202
-379 -79 -552 -561 -382 -1068 85 -255 246 -478 421 -584 29 -18 53 -35 53
-38 0 -3 -32 -21 -72 -40 -39 -19 -120 -66 -180 -105 l-109 -71 -108 28 c-208
52 -322 64 -611 64 -340 -1 -550 -30 -856 -120 -370 -109 -750 -303 -1029
-525 -154 -123 -361 -341 -445 -468 l-15 -23 -80 21 c-171 44 -261 54 -490 54
-235 1 -335 -10 -548 -61 -60 -14 -111 -23 -114 -20 -2 3 3 41 13 84 35 151
22 371 -33 548 -25 82 -111 275 -122 275 -3 0 -147 -45 -318 -99 -172 -54
-313 -95 -313 -90 0 4 63 144 140 311 l141 302 -23 18 c-42 33 -242 127 -308
145 -93 25 -286 25 -360 -1 -276 -94 -420 -327 -420 -681 0 -256 80 -500 244
-740 112 -165 297 -326 459 -401 32 -14 55 -29 52 -34 -3 -5 -36 -25 -73 -46
-190 -106 -531 -334 -797 -533 -120 -90 -273 -170 -375 -196 l-65 -16 -145 59
c-897 368 -1683 920 -2259 1587 -120 139 -253 318 -331 445 -41 66 -84 120
-126 159 l-64 58 187 130 c1671 1157 3196 1933 4571 2327 391 112 1360 323
2161 471 1410 260 2590 402 3941 475 211 12 386 23 389 25 2 3 17 5 32 5 24 0
30 -6 39 -37z m775 -1484 c120 -69 288 -176 410 -262 177 -125 386 -290 382
-301 -3 -7 -73 -252 -156 -546 -112 -393 -158 -541 -174 -558 -54 -59 -199
-102 -338 -102 l-81 0 7 163 c11 269 -16 740 -65 1117 -20 153 -75 489 -86
523 -8 26 4 22 101 -34z m1116 -835 c475 -437 866 -952 1124 -1479 207 -424
323 -818 381 -1295 27 -217 24 -620 -5 -894 -73 -687 -184 -1204 -541 -2521
-190 -700 -281 -1065 -354 -1423 -208 -1007 -189 -1710 60 -2275 152 -345 427
-661 772 -886 45 -30 81 -56 78 -58 -16 -17 -537 -139 -881 -207 -1708 -337
-3558 -406 -5215 -195 -197 25 -685 100 -810 125 l-35 7 55 -45 c151 -123 427
-313 629 -432 144 -85 419 -223 533 -267 48 -19 88 -37 88 -40 1 -23 -1116
-22 -1530 1 -2608 144 -4763 721 -6425 1718 -842 505 -1569 1152 -2105 1872
-369 496 -678 1072 -895 1669 -239 656 -385 1394 -436 2201 -21 342 -13 1020
17 1366 l7 71 186 155 c527 438 1025 817 1418 1080 197 133 409 261 422 256 5
-1 51 -66 102 -143 287 -431 731 -887 1229 -1264 l95 -71 191 -508 c217 -577
260 -682 388 -947 357 -738 803 -1278 1366 -1652 645 -428 1446 -635 2360
-609 651 18 1168 111 1615 291 l135 54 148 -148 c200 -201 347 -309 573 -423
200 -99 403 -163 625 -193 167 -24 495 -16 646 14 568 114 1044 440 1385 946
218 324 372 776 401 1174 l7 105 55 13 c417 102 800 283 1148 543 150 111 402
358 521 508 336 426 562 948 655 1512 35 214 46 352 46 586 0 284 -26 513 -85
746 -20 80 -323 1075 -343 1127 -9 23 31 -10 199 -165z m7438 -644 c90 -892
99 -1934 25 -2815 -91 -1091 -297 -2033 -619 -2825 -572 -1412 -1520 -2313
-2748 -2615 -316 -78 -526 -104 -892 -112 -481 -10 -874 36 -1360 158 -164 42
-485 145 -610 196 -66 28 -72 32 -103 91 -120 225 -108 606 37 1175 66 258
121 439 322 1052 240 731 311 976 403 1395 189 852 253 1768 170 2433 -9 70
-14 130 -12 132 2 2 49 13 104 24 328 64 648 260 966 589 218 227 429 511 593
799 1 2 35 -8 76 -22 170 -59 403 -109 629 -137 161 -20 658 -17 845 5 642 76
1344 287 1952 587 109 53 199 97 200 96 1 -1 11 -93 22 -206z m-7644 -193
c111 -369 140 -573 132 -947 -4 -179 -11 -282 -26 -385 -124 -806 -505 -1471
-1097 -1916 -477 -359 -1070 -554 -1749 -575 -478 -16 -876 64 -1260 251 -129
63 -295 161 -295 173 0 4 44 22 98 41 505 175 954 486 1227 851 224 300 325
599 312 924 -6 177 -35 295 -110 450 -92 190 -246 366 -425 486 -45 30 -82 57
-82 61 0 13 156 94 272 141 459 186 1004 213 1763 86 172 -29 211 -32 405 -33
176 0 228 3 290 19 113 27 246 95 308 156 61 60 82 97 112 200 12 41 30 106
41 143 11 38 22 67 24 65 1 -1 28 -87 60 -191z m-4195 -637 c662 -47 1128
-364 1224 -832 134 -651 -546 -1395 -1523 -1664 -220 -61 -389 -85 -628 -91
-349 -9 -602 37 -852 153 -579 270 -762 827 -448 1369 191 332 550 635 978
826 340 151 660 225 1079 247 14 1 90 -3 170 -8z m-2837 -1075 c107 -16 217
-42 230 -54 4 -4 -4 -48 -18 -97 -131 -448 -25 -876 294 -1194 253 -252 619
-410 1071 -461 134 -15 540 -6 670 15 75 12 98 13 111 3 154 -115 171 -131
165 -158 -10 -54 -99 -266 -167 -400 -349 -690 -958 -1155 -1784 -1363 -474
-119 -1196 -166 -1700 -111 -812 88 -1463 382 -1994 899 -450 439 -779 980
-1080 1775 -34 90 -60 165 -58 167 2 2 61 -23 131 -56 314 -151 691 -227 993
-201 321 28 494 100 819 338 749 551 1334 834 1864 902 109 14 348 12 453 -4z
m-11966 -289 c452 -337 964 -551 1523 -639 184 -29 623 -31 805 -4 195 29 482
95 579 133 17 6 18 3 11 -37 -15 -94 -98 -405 -146 -551 -145 -438 -338 -812
-559 -1083 -97 -118 -270 -278 -384 -353 -358 -236 -775 -283 -1223 -137 -586
192 -926 648 -1008 1351 -20 171 -20 519 1 716 25 244 70 487 135 731 l21 77
62 -57 c33 -31 116 -98 183 -147z m16068 -2907 c117 -12 346 -56 359 -69 13
-13 -63 -141 -158 -268 -245 -326 -590 -572 -951 -677 -178 -52 -310 -68 -515
-63 -209 6 -346 30 -520 95 -101 38 -304 136 -314 152 -9 14 195 223 308 314
139 112 256 186 426 271 425 211 888 295 1365 245z m-11667 -2556 c163 -291
436 -666 745 -1026 160 -186 521 -552 722 -733 1512 -1354 3450 -2128 5663
-2259 84 -6 112 -11 112 -21 0 -7 -58 -461 -130 -1009 -71 -548 -130 -997
-130 -999 0 -2 -57 -38 -127 -79 -812 -476 -1835 -879 -2750 -1083 -362 -80
-745 -137 -1108 -164 -180 -13 -679 -13 -860 0 -758 55 -1485 269 -2100 618
-123 70 -379 240 -490 327 -943 735 -1521 1838 -1616 3085 -15 194 -6 606 16
790 125 1033 591 1870 1305 2345 134 90 270 165 390 216 99 43 283 108 291
103 3 -2 33 -52 67 -111z m11992 -4051 c0 -614 -304 -1249 -822 -1719 l-113
-103 -707 0 c-390 0 -708 4 -708 8 0 5 9 17 20 27 31 28 114 154 154 232 87
174 122 351 113 577 -7 177 -29 295 -92 483 -63 190 -166 406 -264 553 l-40
60 1229 0 1230 0 0 -118z m3210 29 c0 -513 -205 -1049 -568 -1481 -80 -96
-277 -292 -343 -343 l-36 -27 -1236 2 -1236 3 95 105 c175 192 339 423 457
640 180 334 297 763 297 1091 l0 99 1285 0 1285 0 0 -89z m3207 -63 c-23 -626
-323 -1235 -831 -1689 l-111 -99 -1238 0 -1238 0 90 98 c475 512 734 1091 767
1715 l7 127 1280 0 1280 0 -6 -152z m1796 137 c206 -36 380 -181 459 -380 40
-103 50 -261 24 -365 -11 -40 -121 -277 -290 -620 l-272 -555 -963 -3 -962 -2
108 122 c417 472 657 970 728 1511 8 65 15 161 15 213 l0 94 538 0 c414 -1
555 -4 615 -15z m-11673 -41 c205 -26 430 -92 546 -160 256 -150 413 -535 375
-919 -40 -394 -236 -691 -536 -806 -350 -136 -887 -181 -1340 -114 -168 25
-158 21 -152 69 3 22 43 457 89 965 82 907 83 924 105 932 34 12 242 40 377
49 150 10 384 3 536 -16z m11487 -2246 c-2 -7 -386 -746 -851 -1643 -499 -960
-873 -1669 -911 -1725 -249 -371 -639 -629 -1106 -732 l-104 -23 -3780 0
-3780 0 -105 23 c-473 104 -863 363 -1115 742 -53 80 -1535 2917 -1535 2939 0
4 146 72 325 151 269 118 331 142 357 137 461 -82 642 -101 978 -101 333 0
551 30 771 105 72 25 211 91 249 119 24 19 139 19 5319 20 4230 0 5292 -3
5288 -12z m-13732 -910 c27 -123 165 -522 282 -817 347 -876 779 -1571 1262
-2032 150 -143 149 -139 51 -160 -77 -16 -407 -5 -595 20 -1345 181 -2948 861
-4363 1851 -233 163 -514 372 -508 377 2 2 71 -1 152 -8 321 -25 913 -13 1304
27 882 90 1685 336 2265 693 72 44 133 80 137 80 3 1 10 -13 13 -31z" fill="#ffffff" class="color000 svgShape"></path><path d="M10701 46149c-1896-281-3336-1101-4392-2501-1129-1499-1731-3656-1696-6078 8-508 28-842 78-1289 23-204 35-242 95-288 30-22 49-28 103-31 59-3 71 0 112 26 31 20 53 45 69 76 22 46 22 49 11 224-26 418-33 765-28 1307 6 567 11 709 47 1140 248 2979 1377 5191 3295 6460 713 472 1576 822 2320 940 88 14 178 30 200 34 90 19-25 8-214-20zM19300 39605c-261-52-429-224-506-520-21-82-27-131-31-271-3-94-3-192 1-218l7-47 50 43c231 199 392 292 607 350 120 32 334 30 465-5 187-50 373-156 518-295 44-41 79-71 79-68 0 20-90 233-140 333-156 306-358 537-564 640-138 69-320 91-486 58zM13060 38183c-134-21-263-68-383-140-387-234-506-664-336-1218 61-197 182-460 287-625l42-65 0 45c0 77 29 289 56 409 69 307 192 549 369 726 170 171 379 275 634 319 107 18 349 22 431 6 29-6 55-8 57-6 2 2-33 40-77 84-305 307-656 476-978 471-42-1-88-3-102-6zM31810 17914c-734-48-1328-189-1959-465-248-109-598-290-1251-648-224-123-590-306-795-396-1025-454-2252-748-3834-920-80-8-146-17-148-19-3-3 128-1249 132-1254 1-1 119 11 261 28 760 90 1355 185 1854 297 113 25 212 46 220 47 12 1 66-503 330-3114 262-2586 318-3115 330-3118 18-3 1221 126 1227 131 3 4-634 6273-653 6417l-5 46 138 48c177 63 553 213 753 301 248 110 756 368 1150 585 567 311 842 442 1155 549 543 184 1194 263 1635 196 592-90 1125-351 1563-765 87-82 99-91 115-79 49 40 910 754 927 770 19 19 19 20-75 115-678 687-1582 1133-2492 1228-144 16-476 27-578 20zM3245 16284c-273-39-409-72-582-139-870-340-1414-1165-1380-2090 34-924 621-1711 1491-1999 179-59 315-82 941-155 330-39 632-77 670-85 413-82 718-458 718-886 0-494-403-900-893-900-57 0-662 70-1612 185-836 103-1522 185-1523 183-6-7-148-1248-143-1253 2-3 691-89 1529-192l1524-186 215-1c236-1 346 12 546 64 773 199 1375 809 1565 1585 41 169 59 321 59 505 0 257-34 465-115 707-243 727-870 1280-1626 1432-57 12-387 55-734 96-383 46-659 83-705 96-237 65-446 238-558 464-129 259-132 545-7 800 151 310 467 507 810 506 67 0 595-60 1614-185 833-102 1515-185 1516-183 5 9 145 1250 141 1254-2 3-683 88-1513 190-1442 177-1517 185-1713 188-113 2-218 1-235-1zM9127 12003c-978-1988-1776-3618-1773-3621 5-5 1204-61 1326-62l45 0 360 719 359 720 96-5c52-3 897-43 1878-89 981-45 1787-87 1792-91 4-5 135-344 290-754 155-410 283-746 285-748 5-6 1367-63 1372-58 5 5-2836 7507-2848 7520-5 6-285 24-621 42-337 18-651 34-698 37l-85 5-1778-3615zm3011 461c327-861 591-1568 588-1571-8-8-2653 121-2662 130-6 6 1467 3006 1476 3006 3 0 272-704 598-1565zM21808 15503l-248-3 1-158c0-86 19-1340 43-2787 23-1446 41-2631 41-2633-1-1-726 1092-1611 2430-884 1338-1708 2584-1830 2768l-222 335-793-14c-437-7-796-16-799-18-4-4 110-7397 114-7399 8-3 1250 17 1253 20 3 2-15 1257-39 2788-25 1531-44 2784-43 2785 0 1 824-1242 1830-2763 1005-1521 1831-2766 1834-2768 9-5 1585 25 1591 31 2 2-22 1647-53 3656-32 2009-58 3671-57 3695l0 42-382-2c-211-2-494-4-630-5z" fill="#ffffff" class="color000 svgShape"></path><path d="M31805 14933c-346-36-632-67-634-69-3-2-338-1405-746-3117l-742-3112 26-3c27-2 1300 124 1306 130 2 1 224 948 495 2103 270 1155 494 2108 498 2118 5 12 290-584 936-1958 911-1936 930-1976 955-1971 14 3 310 33 656 67 347 35 632 64 634 65 2 2-606 1311-1350 2909-1291 2772-1354 2905-1379 2904-14-1-308-30-655-66zM24770 6130c-247-34-404-166-455-382-10-44-15-120-15-250l0-188-205 0-205 0 0-150 0-150 205 0 205 0 0-730 0-730 175 0 175 0 0 730 0 730 250 0 250 0 0 150 0 150-251 0-250 0 3 173c3 162 5 176 29 222 50 97 166 139 327 116 48-6 99-14 115-18l27-5 0 154 0 155-70 12c-101 16-235 21-310 11zM26171 6130c-242-34-394-154-454-359-15-51-20-109-24-263l-6-198-198 0-199 0 0-150 0-150 200 0 200 0 0-730 0-730 180 0 180 0 0 730 0 730 245 0 245 0 0 150 0 150-245 0-245 0 0 164c0 95 5 177 11 197 19 56 59 100 114 125 85 39 180 41 338 8l27-6 0 155 0 155-63 11c-93 16-233 21-306 11zM10035 6011c-46-11-68-26-108-70-63-70-73-155-29-242 101-200 402-130 402 95 0 30-5 67-11 83-12 33-73 99-109 118-33 17-107 26-145 16zM6381 5989c-313-28-574-177-681-389-51-101-64-163-65-300 0-101 4-138 22-195 58-186 204-315 441-389 46-14 217-48 380-76 163-27 330-59 370-70 142-40 252-112 294-193 42-83 41-203-4-291-52-102-208-201-367-232-111-22-313-15-423 14-171 46-358 151-500 281-36 33-71 61-76 61-14 0-222-240-222-256 0-15 140-134 225-191 145-97 355-184 532-220 132-27 454-25 579 4 201 47 339 118 460 238 143 143 201 298 191 514-7 167-45 264-142 369-68 74-156 132-266 176-117 47-213 69-531 121-356 58-450 87-526 159-60 56-77 100-77 201 0 107 16 146 93 217 93 87 200 125 377 135 234 12 493-69 733-231 46-31 87-56 92-56 10 0 191 247 197 270 3 10-23 34-83 73-214 142-487 234-762 257-129 11-128 11-261-1zM17292 5980c-108-29-187-75-272-160-120-120-165-233-164-415 2-160 47-294 153-450l49-71-97-57c-197-117-314-244-368-397-20-59-27-100-30-190-9-218 42-358 182-497 67-66 100-90 176-127 154-74 239-91 464-90 171 1 199 3 287 27 152 40 323 127 416 211l39 35 109-92c149-125 261-210 272-206 5 2 49 51 97 109 49 58 95 112 102 121 12 15 6 23-54 69-37 30-125 100-195 158l-128 104 26 42c43 69 140 276 172 366 50 143 97 341 84 349-13 8-303 54-306 49 0-2-18-70-39-152-39-156-98-318-146-399l-28-49-282 279-282 278 133 80c240 145 368 298 398 476 39 231-72 448-282 555-127 64-336 83-486 44zm259-266c41-12 67-29 110-73 66-65 84-113 76-206-6-76-38-144-96-204-58-60-280-194-297-180-25 20-109 155-133 213-21 51-25 77-25 156 0 84 3 101 26 146 50 95 151 161 249 163 19 1 60-6 90-15zm-164-1209c77-83 221-229 321-325 100-96 182-178 182-182 0-25-170-124-270-158-82-28-270-38-362-21-86 17-197 72-251 125-135 131-153 356-41 509 48 66 238 209 270 204 6-1 74-70 151-152zM20710 5994c-192-35-291-65-405-121-241-120-445-323-564-561-44-88-87-221-106-326-19-113-20-337 0-449 90-515 488-909 1012-1002 115-21 351-21 465-1 250 45 491 164 666 330l73 70-122 122-122 123-69-64c-122-113-249-183-409-227-121-33-356-33-477 0-324 88-567 345-639 677-24 108-21 299 6 410 28 116 105 273 179 366 105 132 277 242 457 290 63 17 109 22 220 23 169 0 270-21 411-88 114-54 167-90 256-174l70-66 118 124c66 69 119 130 120 137 0 18-127 130-216 189-133 88-308 162-479 200-68 15-389 28-445 18zM8585 5330c-110-17-249-69-335-125l-80-53 0 79 0 79-175 0-175 0 0-1235 0-1235 180 0 180 0 0 421c0 231 3 419 8 417 4-1 36-20 72-40 36-20 108-52 160-70 94-33 96-33 280-33 181 1 187 1 280 33 306 102 526 353 592 672 28 134 21 327-16 453-92 309-327 539-632 617-89 23-255 33-339 20zm235-323c96-29 164-71 246-152 126-124 177-248 176-429 0-164-49-289-157-405-74-80-141-123-242-157-65-23-95-27-183-27-168 0-317 52-428 149l-52 46 0 397 0 397 28 26c49 47 144 107 201 129 127 48 302 59 411 26zM11290 5325c-366-82-641-371-700-739-16-96-8-309 15-396 82-311 340-566 648-640 320-77 630 4 891 232l39 34-107 117-107 116-79-64c-132-106-247-149-400-148-190 0-352 88-459 248-65 98-92 182-98 311-11 219 70 400 235 523 221 166 512 140 753-68l51-44 97 103c137 148 132 137 85 177-111 96-281 187-420 225-103 27-346 35-444 13zM13057 5329c-142-19-312-94-431-188-237-189-360-518-317-845 50-370 317-658 699-753 96-24 338-24 452 1 113 24 220 66 321 127 143 85 142 71 13 200l-111 111-63-43c-80-54-195-95-308-110-115-15-232 5-339 55-142 68-280 238-312 384l-9 42 689 0 689 0 0 89c0 384-180 700-487 855-130 65-332 97-486 75zm221-304c114-27 211-94 289-198 50-68 73-114 97-194l15-53-511 0-510 0 6 38c4 20 25 75 47 121 108 221 342 339 567 286zM14810 5330c-233-28-435-151-510-311-89-193-47-439 97-558 105-86 235-127 547-171 121-17 243-41 273-52 99-37 153-103 153-187 0-54-12-82-56-131-73-81-189-120-355-120-173 0-326 51-494 164-38 26-73 48-76 49-10 3-191-222-187-233 7-21 119-95 213-140 118-58 247-93 404-110 396-44 724 98 848 365 23 50 28 77 31 161 8 206-69 339-250 430-96 48-183 70-427 104-258 36-337 58-390 105-90 82-75 220 32 294 75 51 130 65 262 65 164 0 300-38 459-129 44-25 82-45 86-45 7 0 169 206 176 224 6 16-136 100-241 143-190 77-398 106-595 83zM22725 5326c-206-48-394-161-520-313-68-82-147-239-177-348-30-115-30-355 1-470 39-147 122-295 225-403 99-104 282-209 431-248 100-26 362-26 460 0 100 26 247 98 331 161 243 183 381 511 346 823-43 376-277 659-642 777-75 25-104 28-240 31-107 3-173-1-215-10zm307-307c184-38 362-210 424-408 24-74 28-224 10-311-46-220-222-406-428-455-160-38-325 0-465 107-254 194-299 614-93 863 143 173 345 247 552 204zM27404 5330c-358-51-647-316-736-676-32-131-30-333 5-465 66-249 230-450 467-569 186-94 410-121 646-79 130 23 267 80 398 167l68 45-115 114-114 115-50-36c-107-77-242-118-388-119-108-1-176 14-274 60-86 41-201 148-245 228-29 53-66 154-66 180 0 13 77 15 686 15l687 0-6 148c-5 159-27 256-86 387-55 120-153 245-254 321-76 58-219 126-308 148-82 20-233 28-315 16zm197-300c188-35 362-213 415-425l6-25-511 0c-294 0-511 4-511 9 0 32 46 148 80 200 120 186 321 278 521 241zM29375 5330c-259-41-498-197-622-408-94-161-123-261-130-452-4-122-2-161 16-244 68-329 328-593 668-678 72-18 116-22 243-22 179 1 289 21 419 78 88 38 254 142 249 155-2 5-53 57-114 114l-111 106-46-33c-161-115-402-153-580-92-128 43-220 110-292 211-46 64-86 151-100 213l-7 32 691 0 691 0 0 68c0 93-17 235-37 307-88 321-325 559-625 630-81 19-237 26-313 15zm196-300c30-5 86-26 125-45 129-63 266-237 289-367l7-38-511 0c-281 0-511 2-511 4 0 2 9 32 20 67 51 167 178 302 335 357 94 33 156 39 246 22zM9910 4430l0-880 175 0 175 0 0 880 0 880-175 0-175 0 0-880z" fill="#ffffff" class="color000 svgShape"></path></g></svg></g></svg>